<svg version="1.1" xmlns="http://www.w3.org/2000/svg" xmlns:xlink="http://www.w3.org/1999/xlink" width="457.30512" height="84.98631" viewBox="0,0,457.30512,84.98631"><g transform="translate(-91.34744,-137.5068)"><g data-paper-data="{&quot;isPaintingLayer&quot;:true}" fill="#000000" fill-rule="nonzero" stroke="#000000" stroke-width="2" stroke-linecap="round" stroke-linejoin="miter" stroke-miterlimit="10" stroke-dasharray="" stroke-dashoffset="0" style="mix-blend-mode: normal"><path d="M293.39594,145.94556l-3.72408,3.87925c-0.53775,-0.54022 -1.1037,-1.05162 -1.69549,-1.53204c-0.42765,-0.34649 -0.8716,-0.67238 -1.33033,-0.97654c-0.67178,-0.44742 -1.38218,-0.83396 -2.12272,-1.15499c-0.32123,-0.1381 -0.64845,-0.26184 -0.98067,-0.37086c-1.05171,-0.34482 -2.11204,-0.51724 -3.18098,-0.51724c-1.45058,-0.00987 -2.89057,0.24734 -4.24804,0.75878c-0.16306,0.06228 -0.32465,0.12834 -0.48465,0.1981c-1.46549,0.63792 -2.74134,1.52583 -3.82753,2.66375c-1.00067,1.05641 -1.80574,2.28215 -2.37772,3.62011c-0.06333,0.14569 -0.1242,0.29243 -0.18258,0.44016c-0.62068,1.56894 -0.93102,3.28443 -0.93102,5.14647c-0.0046,1.05498 0.09135,2.108 0.28655,3.14477c0.14327,0.75239 0.35021,1.49124 0.61861,2.20859c0.60343,1.60343 1.45688,2.97409 2.56031,4.112c1.10343,1.13791 2.42238,2.00859 3.95684,2.61202c1.13624,0.44054 2.32842,0.7203 3.54201,0.83119c0.51608,0.04975 1.03427,0.07443 1.55273,0.07397c1.13791,0 2.25859,-0.15517 3.36202,-0.46551c1.10343,-0.31034 2.13789,-0.75861 3.1034,-1.3448c0.9655,-0.58619 1.8448,-1.27584 2.63789,-2.06893l2.79306,4.55165c-0.42179,0.48933 -0.89154,0.93518 -1.40222,1.33084c-0.53896,0.42275 -1.14912,0.82395 -1.83049,1.20361c-1.36204,0.75861 -2.87926,1.35343 -4.55165,1.78446c-1.67239,0.43103 -3.35339,0.64654 -5.04302,0.64654c-1.54479,0.00827 -3.08453,-0.17713 -4.5832,-0.55189c-0.8017,-0.20386 -1.58658,-0.46894 -2.34772,-0.79292c-2.10341,-0.89654 -3.93097,-2.181 -5.48267,-3.85339c-1.47687,-1.60312 -2.64099,-3.46824 -3.43236,-5.49922c-0.05573,-0.14042 -0.10988,-0.28145 -0.16241,-0.42309c-0.61983,-1.69233 -1.01222,-3.45947 -1.16688,-5.25508c-0.06755,-0.74635 -0.10104,-1.49539 -0.10034,-2.24479c0,-2.58617 0.45689,-4.9913 1.37067,-7.2154c0.91378,-2.2241 2.181,-4.18097 3.80166,-5.8706c1.62067,-1.68962 3.49994,-2.99995 5.63784,-3.93097c2.04429,-0.88163 4.24149,-1.35432 6.46749,-1.39136c0.15445,-0.00355 0.30894,-0.00528 0.46344,-0.00517c1.75859,0 3.47408,0.26724 5.14647,0.80171c1.67239,0.53448 3.1896,1.27584 4.55165,2.2241c1.36204,0.94826 2.4741,2.02583 3.33615,3.23271zM256.25861,176.2037h-22.80998v-36.20632h22.80998v5.37922h-17.22386v25.44787h17.22386zM197.75954,170.15208l3.51718,-3.67235c0.53965,0.77068 1.04585,1.4267 1.5186,1.96807c0.15299,0.17572 0.31063,0.34733 0.47275,0.51465c0.50827,0.52275 0.99826,0.94757 1.46998,1.27446c0.08619,0.06001 0.1738,0.11797 0.26276,0.17379c0.29441,0.18554 0.60498,0.34411 0.92792,0.47379c0.23591,0.09447 0.47912,0.16955 0.72723,0.22448c0.55172,0.12069 1.13791,0.18103 1.75859,0.18103c1.24136,0 2.32755,-0.28448 3.25857,-0.85343c0.93102,-0.56895 1.65515,-1.35343 2.17238,-2.35341c0.37838,-0.74073 0.62034,-1.54351 0.7143,-2.36996c0.04153,-0.34637 0.06209,-0.69493 0.06155,-1.04378v-19.49969h-6.62058v-5.17233h17.79282v5.17233h-5.58612v20.01692c0.00527,1.04171 -0.11825,2.08009 -0.36775,3.0915c-0.12681,0.50612 -0.28911,1.00269 -0.48568,1.48601c-0.56895,1.39653 -1.37929,2.61202 -2.43099,3.6465c-1.05171,1.03446 -2.29307,1.8448 -3.72408,2.43099c-1.01894,0.41182 -2.09054,0.6789 -3.18357,0.79343c-0.53163,0.05801 -1.06605,0.08667 -1.60084,0.08586c-1.1724,0 -2.29307,-0.15517 -3.36202,-0.46551c-1.06895,-0.31034 -2.06031,-0.75861 -2.97409,-1.3448c-0.91378,-0.58619 -1.73273,-1.28446 -2.45686,-2.0948c-0.72413,-0.81033 -1.3448,-1.69825 -1.86204,-2.66375zM312.79217,176.2037h-5.58612v-30.82709h-10.13777v-5.37922h26.17199v5.37922h-10.44811zM130.72614,176.2037h-5.58612v-36.20632h15.41354c2.06893,0 3.97408,0.50861 5.71543,1.52583c1.74135,1.01722 3.12926,2.39651 4.16372,4.13787c0.96055,1.62879 1.49131,3.47502 1.54239,5.36526c0.00629,0.16837 0.00939,0.33685 0.00931,0.50534c0,1.96549 -0.51724,3.79305 -1.5517,5.48267c-1.03446,1.68962 -2.41375,3.04305 -4.13787,4.06028c-1.72411,1.01722 -3.63787,1.52583 -5.74128,1.52583h-9.82742zM130.72614,145.37661v11.84464h10.34466c0.99998,0 1.89652,-0.25 2.68961,-0.74999c0.79213,-0.50174 1.43235,-1.21009 1.8517,-2.04876c0.00346,-0.00672 0.00691,-0.01344 0.01034,-0.02017c0.39666,-0.78583 0.6223,-1.6468 0.66206,-2.52616c0.00698,-0.13195 0.01043,-0.26406 0.01034,-0.3962c0.00435,-0.59967 -0.07433,-1.19705 -0.23379,-1.77514c-0.13917,-0.49551 -0.34778,-0.96882 -0.61965,-1.40584c-0.55745,-0.89049 -1.34474,-1.61416 -2.27893,-2.0948c-0.0333,-0.01751 -0.06676,-0.03475 -0.10034,-0.05172c-0.80129,-0.40257 -1.67095,-0.65135 -2.56392,-0.73344c-0.29101,-0.02864 -0.58326,-0.0428 -0.87568,-0.04241zM170.74394,176.06042c-0.7086,-0.19857 -1.40308,-0.44447 -2.07876,-0.73603c-2.15514,-0.93102 -4.03442,-2.23272 -5.63784,-3.90511c-1.60343,-1.67239 -2.84478,-3.63787 -3.72408,-5.89646c-0.68573,-1.78465 -1.10572,-3.66032 -1.24653,-5.56698c-0.04869,-0.61724 -0.07286,-1.23616 -0.07241,-1.85531c-0.00763,-1.6111 0.16517,-3.21797 0.51516,-4.79061c0.20255,-0.89588 0.47121,-1.77552 0.80378,-2.63168c0.8793,-2.25859 2.12065,-4.22407 3.72408,-5.89646c1.60343,-1.67239 3.48271,-2.97409 5.63784,-3.90511c1.86424,-0.79643 3.85435,-1.25781 5.87887,-1.36291c0.39338,-0.0227 0.78733,-0.0339 1.18136,-0.03362c1.6829,-0.00954 3.35912,0.21254 4.98148,0.65999c0.70862,0.19874 1.40309,0.44481 2.07876,0.73654c2.15514,0.93102 4.03442,2.24134 5.63784,3.93097c1.60343,1.68962 2.84478,3.66374 3.72408,5.92232c0.72594,1.88839 1.15515,3.87777 1.27239,5.8975c0.03118,0.49041 0.04671,0.98168 0.04655,1.47308c0.00845,1.71216 -0.19146,3.41898 -0.59534,5.08285c-0.19177,0.77734 -0.43347,1.5415 -0.72361,2.28772c-0.8793,2.25859 -2.12065,4.23269 -3.72408,5.92232c-1.60343,1.68962 -3.48271,2.99995 -5.63784,3.93097c-1.86428,0.79626 -3.85438,1.25745 -5.87887,1.36239c-0.39337,0.02287 -0.78733,0.03425 -1.18136,0.03413c-1.68292,0.00937 -3.35914,-0.21289 -4.98148,-0.66051zM175.72541,171.28999c1.09861,0.00622 2.19312,-0.13451 3.25443,-0.41844c0.54098,-0.14709 1.06978,-0.33575 1.5817,-0.5643c1.46549,-0.65516 2.73271,-1.57756 3.80166,-2.7672c0.98588,-1.10557 1.77489,-2.372 2.33272,-3.74425c0.061,-0.1475 0.11963,-0.29595 0.17586,-0.44534c0.60343,-1.60343 0.90516,-3.35339 0.90516,-5.24991c0,-1.89652 -0.30172,-3.6465 -0.90516,-5.24991c-0.44756,-1.20924 -1.06739,-2.34752 -1.84032,-3.3796c-0.21117,-0.27935 -0.43413,-0.54959 -0.66827,-0.80998c-1.06895,-1.18964 -2.33617,-2.11204 -3.80166,-2.7672c-1.22183,-0.54016 -2.52913,-0.86125 -3.86218,-0.94861c-0.32414,-0.02307 -0.649,-0.03445 -0.97395,-0.03413c-1.09859,-0.00639 -2.1931,0.13417 -3.25443,0.41792c-0.54099,0.14726 -1.0698,0.33609 -1.5817,0.56482c-1.46549,0.65516 -2.74134,1.56894 -3.82753,2.74134c-1.01734,1.10618 -1.81996,2.39201 -2.36686,3.79184c-0.04901,0.12328 -0.09625,0.24726 -0.14172,0.37189c-0.42138,1.16894 -0.69082,2.38717 -0.80171,3.62477c-0.0523,0.55742 -0.0782,1.117 -0.07758,1.67687c0,1.89652 0.2931,3.65511 0.8793,5.27578c0.39881,1.12182 0.95487,2.18134 1.65153,3.14685c0.26493,0.36413 0.55111,0.71232 0.85706,1.04274c1.08619,1.1724 2.36204,2.08617 3.82753,2.74134c1.22186,0.53998 2.52916,0.8609 3.86218,0.94809c0.32413,0.02324 0.64899,0.0348 0.97395,0.03465zM97.93356,176.2037h-5.58612v-36.20632h14.74114c1.96549,0 3.74994,0.49137 5.35336,1.47411c1.60343,0.98274 2.88789,2.31893 3.85339,4.00856c0.92607,1.63171 1.42328,3.47161 1.44515,5.34767c0.0021,0.09671 0.00314,0.19344 0.0031,0.29017c0.01137,1.42243 -0.24208,2.83455 -0.7474,4.16424c-0.19619,0.50814 -0.43047,1.00074 -0.70085,1.4736c-0.9655,1.68962 -2.24996,3.04305 -3.85339,4.06028c-1.60343,1.01722 -3.38787,1.52583 -5.35336,1.52583h-9.15502zM97.93356,145.37661v11.58602h9.05158c0.93102,0 1.77583,-0.26724 2.53444,-0.80171c0.69691,-0.49484 1.27746,-1.13577 1.70118,-1.87807c0.04662,-0.07995 0.09163,-0.16082 0.135,-0.24258c0.42573,-0.8114 0.66232,-1.70862 0.69206,-2.62444c0.00413,-0.09925 0.0062,-0.19858 0.00621,-0.29793c0.00435,-0.63409 -0.08649,-1.26525 -0.26948,-1.87238c-0.10888,-0.35465 -0.25251,-0.69769 -0.42878,-1.02412c-0.32334,-0.60953 -0.75061,-1.15792 -1.26257,-1.62049c-0.18117,-0.16188 -0.37279,-0.31169 -0.57361,-0.44844c-0.75861,-0.51724 -1.60343,-0.77585 -2.53444,-0.77585zM153.43267,176.25542l-6.77576,-0.05172l-9.20675,-16.34457l5.74128,-1.29308zM253.41382,160.32464h-17.43076v-5.37922h17.43076z"/><path d="M348.01722,168.97701l3.89378,-4.47259c1.67959,2.39941 3.29218,4.07883 4.83776,5.03824c0.03597,0.0222 0.07209,0.04413 0.10839,0.06577c1.57856,0.94714 3.45529,1.4207 5.6302,1.4207c0.71586,0.00336 1.43033,-0.06343 2.13316,-0.19943c0.51076,-0.10029 1.01183,-0.24482 1.49753,-0.432c0.46709,-0.17787 0.91519,-0.40209 1.33757,-0.66931c0.46371,-0.29288 0.88178,-0.65244 1.24075,-1.06711c0.63142,-0.73667 0.94714,-1.57856 0.94714,-2.52569c0.00365,-0.6094 -0.10295,-1.21443 -0.31466,-1.78588c-0.00035,-0.00105 -0.0007,-0.0021 -0.00105,-0.00316c-0.21248,-0.56082 -0.53667,-1.07263 -0.95293,-1.50437c-0.00682,-0.00721 -0.01366,-0.01441 -0.02052,-0.02158c-0.23953,-0.24682 -0.49913,-0.47333 -0.77612,-0.6772c-0.2652,-0.19715 -0.55741,-0.3864 -0.87663,-0.56776c-0.01034,-0.00599 -0.02069,-0.01195 -0.03105,-0.01789c-0.68404,-0.38587 -1.48209,-0.7279 -2.39415,-1.02606c-0.46932,-0.15228 -0.94429,-0.28655 -1.42386,-0.40253c-0.47287,-0.11506 -0.97432,-0.22134 -1.50437,-0.31887c-0.07625,-0.01414 -0.15254,-0.02799 -0.22889,-0.04157c-1.89427,-0.38587 -3.543,-0.89451 -4.94615,-1.52595c-0.74929,-0.33325 -1.46515,-0.73708 -2.1379,-1.20602c-0.49511,-0.3466 -0.95936,-0.73532 -1.38756,-1.16182c-0.94714,-0.94714 -1.64872,-2.02582 -2.10474,-3.23605c-0.29268,-0.78818 -0.49,-1.60855 -0.58775,-2.44361c-0.06527,-0.54232 -0.09743,-1.08811 -0.09629,-1.63434c0,-1.47332 0.32449,-2.84141 0.97345,-4.10426c0.64896,-1.26285 1.54349,-2.35907 2.68355,-3.28867c0.92031,-0.74374 1.94508,-1.34796 3.04136,-1.79325c0.32344,-0.13334 0.65165,-0.25479 0.98397,-0.36412c1.2446,-0.40464 2.53579,-0.64867 3.84222,-0.72614c0.38503,-0.02462 0.77075,-0.0369 1.15655,-0.03684c1.04736,-0.00379 2.09326,0.07857 3.12713,0.24625c0.70445,0.1156 1.40013,0.27945 2.08213,0.4904c1.38229,0.42128 2.68523,1.06866 3.85589,1.91585c0.11945,0.08716 0.23734,0.17646 0.35359,0.26783c1.22777,0.96468 2.24506,2.1486 3.05188,3.55177l-3.99902,3.9464c-0.38576,-0.64134 -0.82213,-1.25085 -1.30494,-1.82271c-0.32946,-0.38914 -0.68455,-0.75583 -1.0629,-1.09763c-0.87698,-0.78928 -1.84165,-1.38563 -2.89403,-1.78904c-1.04043,-0.39476 -2.14326,-0.59953 -3.25605,-0.60459c-0.03719,-0.00038 -0.07436,-0.00055 -0.11155,-0.00053c-0.56718,-0.00221 -1.13373,0.03825 -1.69484,0.12102c-0.64054,0.09717 -1.23233,0.25274 -1.77536,0.46673c-0.03607,0.01426 -0.07203,0.02881 -0.10787,0.04368c-0.4683,0.19049 -0.91263,0.43527 -1.32388,0.7293c-0.40512,0.2906 -0.76567,0.63874 -1.07026,1.03343c-0.54376,0.70972 -0.84681,1.57445 -0.86506,2.46835c-0.00219,0.06294 -0.00324,0.12592 -0.00316,0.18891c0,0.73667 0.14032,1.41194 0.42095,2.02582c0.22692,0.49034 0.54249,0.93454 0.93082,1.3102c0.11454,0.11234 0.23411,0.21945 0.35833,0.32098c0.25324,0.20497 0.52245,0.38937 0.80507,0.55144c0.4413,0.25573 0.95345,0.49286 1.53647,0.71141c0.46048,0.17123 0.92757,0.32413 1.40019,0.45831c0.64721,0.18557 1.35563,0.35728 2.12527,0.51514c1.92935,0.42095 3.64823,0.95591 5.15663,1.60487c1.5084,0.64896 2.78879,1.41194 3.84117,2.28891c0.58329,0.48093 1.11005,1.02658 1.57014,1.62644c0.31507,0.41353 0.59093,0.85551 0.82401,1.3202c0.54373,1.08745 0.81559,2.2626 0.81559,3.52545c0,2.3503 -0.54373,4.38489 -1.63118,6.10377c-1.08745,1.71887 -2.63094,3.04311 -4.63045,3.97272c-1.93356,0.89907 -4.22809,1.36335 -6.88358,1.39282c-0.09085,0.00103 -0.18171,0.00156 -0.27257,0.00158c-1.19829,0.00447 -2.39457,-0.09873 -3.57439,-0.30835c-0.66803,-0.12042 -1.32819,-0.28102 -1.97688,-0.48093c-1.70133,-0.52619 -3.24482,-1.32423 -4.63045,-2.39415c-1.13385,-0.88214 -2.15151,-1.90422 -3.02874,-3.04188c-0.23593,-0.30362 -0.46298,-0.61402 -0.68089,-0.93082zM482.56323,168.97701l3.89378,-4.47259c1.67959,2.39941 3.29218,4.07883 4.83776,5.03824c0.03597,0.0222 0.07209,0.04413 0.10839,0.06577c1.57856,0.94714 3.45529,1.4207 5.6302,1.4207c0.71586,0.00336 1.43033,-0.06343 2.13316,-0.19943c0.51076,-0.10029 1.01183,-0.24482 1.49753,-0.432c0.46709,-0.17787 0.91519,-0.40209 1.33757,-0.66931c0.46371,-0.29288 0.88178,-0.65244 1.24075,-1.06711c0.63142,-0.73667 0.94714,-1.57856 0.94714,-2.52569c0.00365,-0.6094 -0.10295,-1.21443 -0.31466,-1.78588c-0.00035,-0.00105 -0.0007,-0.0021 -0.00105,-0.00316c-0.21248,-0.56082 -0.53667,-1.07263 -0.95293,-1.50437c-0.00682,-0.00721 -0.01366,-0.01441 -0.02052,-0.02158c-0.23953,-0.24682 -0.49913,-0.47333 -0.77612,-0.6772c-0.2652,-0.19715 -0.55741,-0.3864 -0.87663,-0.56776c-0.01034,-0.00599 -0.02069,-0.01195 -0.03105,-0.01789c-0.68404,-0.38587 -1.48209,-0.7279 -2.39415,-1.02606c-0.46932,-0.15228 -0.94429,-0.28655 -1.42386,-0.40253c-0.47287,-0.11506 -0.97432,-0.22134 -1.50437,-0.31887c-0.07625,-0.01414 -0.15254,-0.02799 -0.22889,-0.04157c-1.89427,-0.38587 -3.543,-0.89451 -4.94615,-1.52595c-0.74929,-0.33325 -1.46515,-0.73708 -2.1379,-1.20602c-0.49511,-0.3466 -0.95936,-0.73532 -1.38756,-1.16182c-0.94714,-0.94714 -1.64872,-2.02582 -2.10474,-3.23605c-0.29268,-0.78818 -0.49,-1.60855 -0.58775,-2.44361c-0.06527,-0.54232 -0.09743,-1.08811 -0.09629,-1.63434c0,-1.47332 0.32449,-2.84141 0.97345,-4.10426c0.64896,-1.26285 1.54349,-2.35907 2.68355,-3.28867c0.92031,-0.74374 1.94508,-1.34796 3.04136,-1.79325c0.32344,-0.13334 0.65165,-0.25479 0.98397,-0.36412c1.2446,-0.40464 2.53579,-0.64867 3.84222,-0.72614c0.38503,-0.02462 0.77075,-0.0369 1.15655,-0.03684c1.04736,-0.00379 2.09326,0.07857 3.12713,0.24625c0.70445,0.1156 1.40013,0.27945 2.08213,0.4904c1.38229,0.42128 2.68523,1.06866 3.85589,1.91585c0.11945,0.08716 0.23734,0.17646 0.35359,0.26783c1.22777,0.96468 2.24506,2.1486 3.05188,3.55177l-3.99902,3.9464c-0.38576,-0.64134 -0.82213,-1.25085 -1.30494,-1.82271c-0.32946,-0.38914 -0.68455,-0.75583 -1.0629,-1.09763c-0.87698,-0.78928 -1.84165,-1.38563 -2.89403,-1.78904c-1.04043,-0.39476 -2.14326,-0.59953 -3.25605,-0.60459c-0.03719,-0.00038 -0.07436,-0.00055 -0.11155,-0.00053c-0.56718,-0.00221 -1.13373,0.03825 -1.69484,0.12102c-0.64054,0.09717 -1.23233,0.25274 -1.77536,0.46673c-0.03607,0.01426 -0.07203,0.02881 -0.10787,0.04368c-0.4683,0.19049 -0.91263,0.43527 -1.32388,0.7293c-0.40512,0.2906 -0.76567,0.63874 -1.07026,1.03343c-0.54376,0.70972 -0.84681,1.57445 -0.86506,2.46835c-0.00219,0.06294 -0.00324,0.12592 -0.00316,0.18891c0,0.73667 0.14032,1.41194 0.42095,2.02582c0.22692,0.49034 0.54249,0.93454 0.93082,1.3102c0.11454,0.11234 0.23411,0.21945 0.35833,0.32098c0.25324,0.20497 0.52245,0.38937 0.80507,0.55144c0.4413,0.25573 0.95345,0.49286 1.53647,0.71141c0.46048,0.17123 0.92757,0.32413 1.40019,0.45831c0.64721,0.18557 1.35563,0.35728 2.12527,0.51514c1.92935,0.42095 3.64823,0.95591 5.15663,1.60487c1.5084,0.64896 2.78879,1.41194 3.84117,2.28891c0.58329,0.48093 1.11005,1.02658 1.57014,1.62644c0.31507,0.41353 0.59093,0.85551 0.82401,1.3202c0.54373,1.08745 0.81559,2.2626 0.81559,3.52545c0,2.3503 -0.54373,4.38489 -1.63118,6.10377c-1.08745,1.71887 -2.63094,3.04311 -4.63045,3.97272c-1.93356,0.89907 -4.22809,1.36335 -6.88358,1.39282c-0.09085,0.00103 -0.18171,0.00156 -0.27257,0.00158c-1.19829,0.00447 -2.39457,-0.09873 -3.57439,-0.30835c-0.66803,-0.12042 -1.32819,-0.28102 -1.97688,-0.48093c-1.70133,-0.52619 -3.24482,-1.32423 -4.63045,-2.39415c-1.13385,-0.88214 -2.15151,-1.90422 -3.02874,-3.04188c-0.23593,-0.30362 -0.46298,-0.61402 -0.68089,-0.93082zM450.20274,175.60697h-5.78806l14.25966,-36.83309h5.78806l14.15443,36.83309h-6.05115l-8.419,-22.20509c-0.10208,-0.23818 -0.29484,-0.80612 -0.57828,-1.70379c-0.00896,-0.02841 -0.01791,-0.05683 -0.02684,-0.08524c-0.29817,-0.94714 -0.64019,-1.99951 -1.02606,-3.15713c-0.38587,-1.15761 -0.73667,-2.21876 -1.05237,-3.18343c-0.25783,-0.78788 -0.44551,-1.34756 -0.56302,-1.67907c-0.02223,-0.06317 -0.04504,-0.12614 -0.0684,-0.18891l1.21023,-0.05262c-0.21047,0.59635 -0.4648,1.35055 -0.76297,2.2626c-0.29817,0.91206 -0.61388,1.87673 -0.94714,2.89403c-0.33325,1.01729 -0.65773,1.9732 -0.97345,2.86772l-0.78928,2.23629zM439.67899,175.60697h-22.94175v-36.83309h5.68282v31.36075h17.25893zM389.05981,175.60697h-5.68282v-36.83309h14.99633c1.99951,0 3.81486,0.49987 5.44604,1.49963c1.63118,0.99976 2.93788,2.35907 3.92009,4.07795c0.94219,1.66012 1.44801,3.53206 1.47017,5.44078c0.00214,0.0982 0.00319,0.19644 0.00316,0.29467c0.01163,1.44723 -0.24621,2.88398 -0.76034,4.23686c-0.1996,0.51676 -0.43795,1.01771 -0.71299,1.49858c-0.98222,1.71887 -2.28891,3.09573 -3.92009,4.13056c-1.63118,1.03483 -3.44652,1.55225 -5.44604,1.55225h-9.31351zM389.05981,144.24622v11.78659h9.20827c0.94714,0 1.80658,-0.27186 2.57832,-0.81559c0.70891,-0.50326 1.29952,-1.15509 1.73063,-1.91006c0.04744,-0.08151 0.09322,-0.16396 0.13733,-0.24731c0.43302,-0.82528 0.67371,-1.73785 0.70404,-2.66934c0.00421,-0.10115 0.00631,-0.20238 0.00631,-0.30361c0.00437,-0.6449 -0.08804,-1.28679 -0.27414,-1.90427c-0.11073,-0.36097 -0.25684,-0.71012 -0.43621,-1.04237c-0.32899,-0.61989 -0.76366,-1.17759 -1.28442,-1.64802c-0.18429,-0.16487 -0.37923,-0.31744 -0.58354,-0.45673c-0.77174,-0.52619 -1.63118,-0.78928 -2.57832,-0.78928zM547.65256,175.60697h-5.68282v-36.83309h5.68282zM523.60582,175.60697h-5.68282v-36.83309h5.68282zM544.49544,159.97921h-24.09936v-5.47234h24.09936zM471.98687,166.45131h-21.25796l2.10474,-5.47234h16.73275z"/><path d="M323.69774,219.58072h-5.48537l15.18272,-34.28356h5.8282l15.13374,34.28356h-5.73025l-9.89326,-22.33329c-0.07763,-0.14497 -0.15144,-0.29195 -0.22137,-0.44079c-0.16783,-0.35492 -0.34708,-0.77938 -0.53776,-1.27339c-0.27753,-0.71832 -0.57139,-1.47746 -0.88158,-2.27741c-0.31019,-0.79995 -0.60404,-1.58357 -0.88158,-2.35087c-0.0986,-0.27268 -0.19688,-0.54548 -0.29484,-0.8184c-0.07738,-0.21484 -0.15068,-0.4194 -0.2199,-0.61368c-0.06541,-0.18373 -0.13055,-0.36755 -0.19542,-0.55148l1.37134,-0.04898c-0.26121,0.68567 -0.53058,1.40399 -0.80811,2.15497c-0.27753,0.75097 -0.56323,1.51011 -0.85709,2.27741c-0.29386,0.7673 -0.58772,1.50195 -0.88158,2.20394c-0.29386,0.702 -0.57139,1.34685 -0.8326,1.93457zM226.47936,219.58072h-25.41881v-34.28356h25.41881v5.09356h-20.12935v24.09644h20.12935zM435.07032,219.58072h-25.41881v-34.28356h25.41881v5.09356h-20.12935v24.09644h20.12935zM380.16765,219.58072h-15.62351v-34.28356h15.62351c2.84064,0 5.36293,0.43263 7.56687,1.29788c2.20394,0.86525 4.07321,2.0815 5.60781,3.64875c1.5346,1.56725 2.69371,3.38754 3.47733,5.46088c0.78362,2.07334 1.17544,4.31809 1.17544,6.73427c0,2.44883 -0.39181,4.71807 -1.17544,6.80774c-0.78362,2.08966 -1.93457,3.90179 -3.45284,5.43639c-1.24791,1.24985 -2.70193,2.27525 -4.29818,3.03116c-0.42904,0.20638 -0.86591,0.39606 -1.30963,0.56862c-1.37976,0.52946 -2.81748,0.89328 -4.283,1.08385c-1.09672,0.14569 -2.20202,0.2172 -3.30836,0.21403zM369.83361,189.94993v25.07597l-0.14693,-0.53874h10.23609c0.8798,0.00326 1.75882,-0.05302 2.63102,-0.16848c0.92859,-0.12669 1.79189,-0.32439 2.58988,-0.59311c0.11325,-0.03828 0.22591,-0.07829 0.33794,-0.11999c0.82654,-0.30143 1.6149,-0.69873 2.34891,-1.18376c0.56973,-0.37907 1.09597,-0.81973 1.56921,-1.31404c1.02851,-1.07748 1.7958,-2.35087 2.3019,-3.82017c0.35614,-1.04841 0.58616,-2.13551 0.68518,-3.23833c0.04997,-0.53532 0.07465,-1.0727 0.07395,-1.61035c0.00414,-1.00967 -0.09034,-2.01733 -0.2821,-3.00863c-0.11748,-0.5993 -0.27688,-1.18961 -0.47703,-1.76658c-0.50609,-1.45297 -1.28155,-2.72636 -2.32638,-3.82017c-1.04483,-1.09381 -2.35087,-1.94273 -3.91812,-2.54678c-1.56725,-0.60404 -3.41203,-0.90607 -5.53435,-0.90607h-10.38302zM463.81953,219.58072h-15.62351v-34.28356h15.62351c2.84064,0 5.36293,0.43263 7.56687,1.29788c2.20394,0.86525 4.07321,2.0815 5.60781,3.64875c1.5346,1.56725 2.69371,3.38754 3.47733,5.46088c0.78362,2.07334 1.17544,4.31809 1.17544,6.73427c0,2.44883 -0.39181,4.71807 -1.17544,6.80774c-0.78362,2.08966 -1.93457,3.90179 -3.45284,5.43639c-1.24791,1.24985 -2.70193,2.27525 -4.29818,3.03116c-0.42904,0.20638 -0.86591,0.39606 -1.30963,0.56862c-1.37976,0.52946 -2.81748,0.89328 -4.283,1.08385c-1.09672,0.14569 -2.20202,0.2172 -3.30836,0.21403zM453.48549,189.94993v25.07597l-0.14693,-0.53874h10.23609c0.8798,0.00326 1.75882,-0.05302 2.63102,-0.16848c0.92859,-0.12669 1.79189,-0.32439 2.58988,-0.59311c0.11325,-0.03828 0.22591,-0.07829 0.33794,-0.11999c0.82654,-0.30143 1.6149,-0.69873 2.34891,-1.18376c0.56973,-0.37907 1.09597,-0.81973 1.56921,-1.31404c1.02851,-1.07748 1.7958,-2.35087 2.3019,-3.82017c0.35614,-1.04841 0.58616,-2.13551 0.68518,-3.23833c0.04997,-0.53532 0.07465,-1.0727 0.07395,-1.61035c0.00414,-1.00967 -0.09034,-2.01733 -0.2821,-3.00863c-0.11748,-0.5993 -0.27688,-1.18961 -0.47703,-1.76658c-0.50609,-1.45297 -1.28155,-2.72636 -2.32638,-3.82017c-1.04483,-1.09381 -2.35087,-1.94273 -3.91812,-2.54678c-1.56725,-0.60404 -3.41203,-0.90607 -5.53435,-0.90607h-10.38302zM264.77899,219.58072h-25.17393v-34.28356h5.28946v29.19h19.88446zM163.6425,219.58072h-5.28946v-34.28356h17.63154c1.99171,0 3.82017,0.47344 5.48537,1.42032c1.6652,0.94688 3.00389,2.22843 4.01607,3.84466c1.01218,1.61622 1.51827,3.43652 1.51827,5.46088c0.01122,1.92097 -0.54229,3.80289 -1.59174,5.4119c-1.06116,1.64888 -2.46515,2.96308 -4.21198,3.94261c-1.74683,0.97953 -3.66508,1.4693 -5.75474,1.4693h-11.80334zM163.6425,190.39072v11.36255h11.75436c0.84813,0.00745 1.68849,-0.16203 2.46744,-0.4976c0.1947,-0.08505 0.38468,-0.18053 0.56911,-0.28602c0.91423,-0.52242 1.64888,-1.22441 2.20394,-2.10599c0.55507,-0.88158 0.8326,-1.84478 0.8326,-2.88961c0,-1.07748 -0.30202,-2.03253 -0.90607,-2.86513c-0.52296,-0.71419 -1.193,-1.30791 -1.96494,-1.74111c-0.15027,-0.08612 -0.3035,-0.16698 -0.4594,-0.24243c-0.83651,-0.39985 -1.74055,-0.6394 -2.6653,-0.70624c-0.23755,-0.01897 -0.47577,-0.02845 -0.71408,-0.02841zM287.66425,219.54447c-0.91323,-0.20684 -1.80985,-0.48121 -2.68244,-0.82085c-2.15968,-0.82652 -4.14742,-2.04624 -5.86249,-3.59732c-0.05418,-0.04946 -0.10805,-0.09926 -0.16162,-0.14938c-1.71418,-1.5999 -3.03654,-3.46917 -3.9671,-5.60781c-0.88094,-2.04426 -1.3533,-4.24117 -1.39044,-6.46686c-0.00362,-0.15441 -0.00542,-0.30886 -0.00539,-0.46332c-0.01225,-1.94087 0.2991,-3.87021 0.92125,-5.7087c0.14187,-0.41331 0.30019,-0.82079 0.47458,-1.22147c0.93055,-2.13864 2.25292,-4.00791 3.9671,-5.60781c1.71418,-1.5999 3.72221,-2.8488 6.02411,-3.7467c1.81902,-0.70009 3.73112,-1.12881 5.67491,-1.27241c0.62942,-0.0499 1.26057,-0.07473 1.89196,-0.07444c1.57638,-0.00718 3.14926,0.14908 4.69342,0.46626c0.99531,0.20739 1.97254,0.49366 2.92243,0.85611c2.3019,0.88158 4.30993,2.13048 6.02411,3.7467c1.71418,1.61622 3.03654,3.49366 3.9671,5.6323c0.881,2.04441 1.35337,4.24149 1.39044,6.46735c0.00362,0.15425 0.00541,0.30854 0.00539,0.46283c0.0123,1.94103 -0.29905,3.87054 -0.92125,5.70919c-0.14188,0.41315 -0.30021,0.82047 -0.47458,1.22098c-0.93055,2.13864 -2.25292,4.01607 -3.9671,5.6323c-1.71418,1.61622 -3.72221,2.86513 -6.02411,3.7467c-1.71285,0.64715 -3.50618,1.05697 -5.33011,1.21805c-0.75987,0.07042 -1.52261,0.10523 -2.28573,0.10432c-1.64269,0.00783 -3.28107,-0.16861 -4.88443,-0.52601zM292.59765,214.92795c1.13087,0.00532 2.2592,-0.10745 3.36665,-0.33647c0.7135,-0.14985 1.41382,-0.35671 2.09424,-0.61857c1.24333,-0.4721 2.40975,-1.12604 3.46117,-1.94045c0.28486,-0.22267 0.55988,-0.45765 0.82427,-0.70428c1.20809,-1.12646 2.1468,-2.44883 2.81615,-3.9671c0.66934,-1.51827 1.00402,-3.15898 1.00402,-4.92214c0.00876,-1.37924 -0.21527,-2.75007 -0.66265,-4.05477c-0.10208,-0.2936 -0.21596,-0.58296 -0.34137,-0.86737c-0.66934,-1.51827 -1.60806,-2.84064 -2.81615,-3.9671c-1.08565,-1.00422 -2.33597,-1.81419 -3.69626,-2.39446c-0.20269,-0.08794 -0.4073,-0.17139 -0.61368,-0.25027c-1.36673,-0.51588 -2.80294,-0.82442 -4.26096,-0.91537c-0.39125,-0.02654 -0.78329,-0.03977 -1.17544,-0.03967c-1.17683,-0.00549 -2.35078,0.11652 -3.50133,0.3639c-0.67514,0.14738 -1.33833,0.34498 -1.98404,0.59115c-1.20067,0.4518 -2.33363,1.06632 -3.36714,1.82633c-0.33523,0.24864 -0.65805,0.5136 -0.96729,0.79391c-1.22441,1.11013 -2.16313,2.42434 -2.81615,3.94261c-0.55844,1.31323 -0.88187,2.71436 -0.95553,4.13949c-0.01606,0.27692 -0.02406,0.55424 -0.024,0.83162c-0.01018,1.52758 0.25767,3.04427 0.79048,4.47596c0.05971,0.1582 0.12274,0.31512 0.18905,0.47066c0.65302,1.5346 1.59174,2.85696 2.81615,3.9671c1.10069,0.99016 2.35779,1.79115 3.72026,2.37046c0.20292,0.08763 0.40769,0.17091 0.61417,0.24978c1.6652,0.63669 3.49366,0.95504 5.48537,0.95504zM188.71847,219.62969l-6.51388,-0.04898l-10.38302,-15.47658l5.53435,-1.22441zM346.61874,211.35266h-21.74557l2.00804,-5.09356h18.26824zM223.78565,204.54493h-20.03139v-5.09356h20.03139zM432.37661,204.54493h-20.03139v-5.09356h20.03139z"/></g></g></svg>