<svg version="1.1" xmlns="http://www.w3.org/2000/svg" xmlns:xlink="http://www.w3.org/1999/xlink" width="427.10758" height="107.84776" viewBox="0,0,427.10758,107.84776"><g transform="translate(-106.44621,-140.54995)"><g data-paper-data="{&quot;isPaintingLayer&quot;:true}" fill-rule="nonzero" stroke-linejoin="miter" stroke-miterlimit="10" stroke-dasharray="" stroke-dashoffset="0" style="mix-blend-mode: normal"><g fill="#404040" stroke="#404040" stroke-width="2" stroke-linecap="round"><path d="M295.16043,148.49445l-3.47709,3.62196c-0.50208,-0.50439 -1.0305,-0.98187 -1.58304,-1.43043c-0.39929,-0.32351 -0.81379,-0.62779 -1.2421,-0.91177c-0.62723,-0.41775 -1.29051,-0.77865 -1.98193,-1.07839c-0.29992,-0.12894 -0.60544,-0.24447 -0.91563,-0.34626c-0.98196,-0.32195 -1.97196,-0.48293 -2.97001,-0.48293c-1.35437,-0.00922 -2.69886,0.23094 -3.96629,0.70845c-0.15225,0.05815 -0.30312,0.11983 -0.45251,0.18496c-1.36829,0.59561 -2.55952,1.42463 -3.57367,2.48708c-0.9343,0.98634 -1.68598,2.13079 -2.22002,3.38001c-0.05913,0.13603 -0.11596,0.27303 -0.17047,0.41097c-0.57951,1.46488 -0.86927,3.06659 -0.86927,4.80514c-0.00429,0.98501 0.08529,1.96819 0.26754,2.9362c0.13377,0.70249 0.32698,1.39234 0.57758,2.06211c0.56341,1.49708 1.36025,2.77684 2.3905,3.83928c1.03025,1.06244 2.26172,1.87537 3.69441,2.43878c1.06088,0.41132 2.17399,0.67253 3.30709,0.77606c0.48185,0.04645 0.96567,0.06949 1.44975,0.06906c1.06244,0 2.10879,-0.14488 3.13904,-0.43464c1.03025,-0.28976 1.9961,-0.7083 2.89757,-1.25561c0.90146,-0.54731 1.72245,-1.19122 2.46294,-1.93171l2.60781,4.24977c-0.39382,0.45688 -0.83241,0.87316 -1.30922,1.24257c-0.50321,0.39471 -1.07291,0.7693 -1.70909,1.12378c-1.2717,0.7083 -2.6883,1.26367 -4.24977,1.66611c-1.56147,0.40244 -3.13098,0.60366 -4.70855,0.60366c-1.44233,0.00772 -2.87995,-0.16538 -4.27923,-0.51529c-0.74853,-0.19034 -1.48135,-0.43784 -2.19201,-0.74033c-1.9639,-0.83708 -3.67025,-2.03635 -5.11904,-3.59782c-1.37892,-1.4968 -2.46583,-3.23821 -3.20471,-5.13449c-0.05203,-0.13111 -0.10259,-0.26278 -0.15164,-0.39503c-0.57872,-1.58009 -0.94509,-3.23002 -1.08949,-4.90654c-0.06307,-0.69685 -0.09434,-1.39621 -0.09369,-2.09591c0,-2.41465 0.42659,-4.66026 1.27976,-6.73685c0.85317,-2.07659 2.03635,-3.90367 3.54952,-5.48124c1.51318,-1.57756 3.26781,-2.80098 5.26392,-3.67025c1.90871,-0.82316 3.96018,-1.2645 6.03854,-1.29908c0.14421,-0.00331 0.28845,-0.00493 0.4327,-0.00483c1.64195,0 3.24367,0.24952 4.80514,0.74854c1.56147,0.49903 2.97805,1.19122 4.24977,2.07659c1.2717,0.88537 2.31001,1.89147 3.11488,3.0183zM260.48618,176.74576h-21.29714v-33.80498h21.29714v5.02245h-16.08151v23.76007h16.08151zM205.86699,171.09551l3.28391,-3.42879c0.50386,0.71957 0.97649,1.33208 1.41788,1.83754c0.14284,0.16407 0.29003,0.32429 0.4414,0.48052c0.47456,0.48808 0.93205,0.88472 1.37249,1.18993c0.08047,0.05603 0.16227,0.11015 0.24533,0.16226c0.27488,0.17323 0.56486,0.32129 0.86638,0.44237c0.22026,0.0882 0.44734,0.1583 0.679,0.20959c0.51513,0.11269 1.06244,0.16902 1.64195,0.16902c1.15903,0 2.17318,-0.26561 3.04245,-0.79683c0.86927,-0.53122 1.54537,-1.26367 2.0283,-2.19732c0.35328,-0.6916 0.5792,-1.44114 0.66692,-2.21278c0.03878,-0.3234 0.05797,-0.64884 0.05747,-0.97455v-18.2064h-6.18148v-4.82928h16.61273v4.82928h-5.21563v18.68932c0.00492,0.97262 -0.11041,1.94213 -0.34336,2.88646c-0.1184,0.47255 -0.26994,0.93619 -0.45347,1.38745c-0.53122,1.30391 -1.28781,2.43878 -2.26976,3.40465c-0.98196,0.96585 -2.14099,1.72245 -3.47709,2.26976c-0.95136,0.38451 -1.95189,0.63387 -2.97242,0.74081c-0.49637,0.05416 -0.99535,0.08092 -1.49467,0.08017c-1.09464,0 -2.14099,-0.14488 -3.13904,-0.43464c-0.99805,-0.28976 -1.92366,-0.7083 -2.77684,-1.25561c-0.85317,-0.54731 -1.61781,-1.19927 -2.29391,-1.95587c-0.6761,-0.75659 -1.25561,-1.58562 -1.73854,-2.48708zM313.27023,176.74576h-5.21563v-28.78252h-9.4654v-5.02245h24.43617v5.02245h-9.75515zM143.2795,176.74576h-5.21563v-33.80498h14.39126c1.93171,0 3.7105,0.47488 5.33636,1.42463c1.62586,0.94975 2.92172,2.23756 3.88757,3.86343c0.89684,1.52076 1.3924,3.24454 1.44009,5.00942c0.00587,0.1572 0.00877,0.31451 0.00869,0.47182c0,1.83513 -0.48293,3.54148 -1.44879,5.11904c-0.96585,1.57756 -2.25366,2.84122 -3.86343,3.79099c-1.60976,0.94975 -3.39659,1.42463 -5.3605,1.42463h-9.17563zM143.2795,147.96324v11.05906h9.65856c0.93366,0 1.77074,-0.23342 2.51122,-0.70025c0.73959,-0.46846 1.33735,-1.12983 1.72889,-1.91288c0.00323,-0.00627 0.00645,-0.01255 0.00965,-0.01883c0.37035,-0.73371 0.58103,-1.53758 0.61815,-2.35862c0.00652,-0.1232 0.00974,-0.24655 0.00965,-0.36992c0.00406,-0.5599 -0.0694,-1.11766 -0.21828,-1.65741c-0.12994,-0.46265 -0.32471,-0.90456 -0.57855,-1.3126c-0.52048,-0.83143 -1.25555,-1.5071 -2.12778,-1.95587c-0.03109,-0.01635 -0.06233,-0.03245 -0.09369,-0.04829c-0.74815,-0.37587 -1.56013,-0.60815 -2.39387,-0.6848c-0.27171,-0.02674 -0.54458,-0.03996 -0.8176,-0.0396zM180.64317,176.61198c-0.6616,-0.1854 -1.31002,-0.41499 -1.94089,-0.68721c-2.0122,-0.86927 -3.76684,-2.08464 -5.26392,-3.64611c-1.49708,-1.56147 -2.6561,-3.39659 -3.47709,-5.50538c-0.64025,-1.66629 -1.03238,-3.41755 -1.16386,-5.19776c-0.04546,-0.5763 -0.06803,-1.15417 -0.06761,-1.73226c-0.00712,-1.50425 0.15422,-3.00454 0.48099,-4.47288c0.18912,-0.83646 0.43996,-1.65776 0.75047,-2.45714c0.82098,-2.10879 1.98,-3.94391 3.47709,-5.50538c1.49708,-1.56147 3.25172,-2.77684 5.26392,-3.64611c1.7406,-0.74361 3.59872,-1.17439 5.48896,-1.27252c0.36729,-0.02119 0.73511,-0.03165 1.10301,-0.03139c1.57128,-0.00891 3.13633,0.19844 4.65109,0.61622c0.66162,0.18556 1.31003,0.41531 1.94089,0.68769c2.0122,0.86927 3.76684,2.09269 5.26392,3.67025c1.49708,1.57756 2.6561,3.42075 3.47709,5.52953c0.67779,1.76314 1.07854,3.62058 1.188,5.50636c0.02911,0.45788 0.04361,0.91657 0.04346,1.37538c0.00789,1.5986 -0.17876,3.19222 -0.55585,4.74574c-0.17905,0.72578 -0.40472,1.43926 -0.67562,2.13599c-0.82098,2.10879 -1.98,3.95196 -3.47709,5.52953c-1.49708,1.57756 -3.25172,2.80098 -5.26392,3.67025c-1.74063,0.74345 -3.59874,1.17405 -5.48896,1.27203c-0.36728,0.02135 -0.73511,0.03198 -1.10301,0.03187c-1.5713,0.00875 -3.13635,-0.19877 -4.65109,-0.6167zM185.29425,172.15795c1.02575,0.00581 2.04766,-0.12559 3.03858,-0.39069c0.5051,-0.13733 0.99883,-0.31348 1.4768,-0.52687c1.36829,-0.61171 2.55147,-1.47293 3.54952,-2.58367c0.92049,-1.03224 1.65717,-2.21468 2.17801,-3.49592c0.05695,-0.13772 0.1117,-0.27632 0.1642,-0.4158c0.56341,-1.49708 0.84513,-3.13098 0.84513,-4.90172c0,-1.77074 -0.28171,-3.40465 -0.84513,-4.90172c-0.41788,-1.12904 -0.9966,-2.19182 -1.71826,-3.15545c-0.19716,-0.26082 -0.40534,-0.51314 -0.62395,-0.75626c-0.99805,-1.11074 -2.18123,-1.97196 -3.54952,-2.58367c-1.14079,-0.50433 -2.36139,-0.80413 -3.60603,-0.88569c-0.30264,-0.02154 -0.60596,-0.03217 -0.90935,-0.03187c-1.02573,-0.00597 -2.04765,0.12527 -3.03858,0.3902c-0.50511,0.13749 -0.99885,0.3138 -1.4768,0.52736c-1.36829,0.61171 -2.55952,1.46488 -3.57367,2.55952c-0.94987,1.03281 -1.69925,2.23336 -2.20988,3.54035c-0.04576,0.1151 -0.08987,0.23086 -0.13232,0.34722c-0.39343,1.09141 -0.645,2.22884 -0.74854,3.38436c-0.04883,0.52045 -0.07301,1.04292 -0.07243,1.56565c0,1.77074 0.27366,3.41269 0.82098,4.92587c0.37236,1.04742 0.89154,2.03667 1.54199,2.93814c0.24736,0.33998 0.51456,0.66508 0.80022,0.97358c1.01415,1.09464 2.20538,1.94781 3.57367,2.55952c1.14082,0.50417 2.36142,0.8038 3.60603,0.88521c0.30263,0.0217 0.60595,0.03249 0.90935,0.03235zM112.66184,176.74576h-5.21563v-33.80498h13.76345c1.83513,0 3.50123,0.45878 4.99831,1.37634c1.49708,0.91756 2.69635,2.16513 3.59782,3.7427c0.86465,1.52349 1.32888,3.24136 1.3493,4.99299c0.00196,0.0903 0.00293,0.18061 0.00289,0.27092c0.01062,1.32809 -0.22602,2.64655 -0.69783,3.88805c-0.18318,0.47444 -0.40192,0.93437 -0.65437,1.37587c-0.90146,1.57756 -2.10073,2.84122 -3.59782,3.79099c-1.49708,0.94975 -3.16317,1.42463 -4.99831,1.42463h-8.54782zM112.66184,147.96324v10.81759h8.45125c0.86927,0 1.65805,-0.24952 2.36635,-0.74854c0.65069,-0.46202 1.19273,-1.06044 1.58835,-1.75351c0.04353,-0.07465 0.08555,-0.15015 0.12605,-0.22649c0.39749,-0.75758 0.61839,-1.5953 0.64616,-2.45038c0.00386,-0.09267 0.00579,-0.18541 0.0058,-0.27817c0.00406,-0.59203 -0.08075,-1.18133 -0.25161,-1.7482c-0.10166,-0.33113 -0.23576,-0.65142 -0.40034,-0.9562c-0.30189,-0.5691 -0.70083,-1.08112 -1.17883,-1.51301c-0.16915,-0.15114 -0.34807,-0.29102 -0.53557,-0.4187c-0.7083,-0.48293 -1.49708,-0.72439 -2.36635,-0.72439zM164.48004,176.79405l-6.32637,-0.04829l-8.59612,-15.26054l5.3605,-1.20732zM257.83007,161.91986h-16.27469v-5.02245h16.27469z"/><path d="M346.15902,169.99837l3.63553,-4.17595c1.56819,2.24027 3.07383,3.80831 4.5169,4.70409c0.03358,0.02073 0.06731,0.0412 0.1012,0.06141c1.47386,0.88432 3.22612,1.32647 5.25678,1.32647c0.66838,0.00314 1.33547,-0.05922 1.99168,-0.1862c0.47688,-0.09364 0.94472,-0.22858 1.39821,-0.40335c0.43611,-0.16607 0.85449,-0.37542 1.24886,-0.62492c0.43296,-0.27346 0.8233,-0.60917 1.15846,-0.99634c0.58954,-0.68781 0.88432,-1.47386 0.88432,-2.35818c0.00341,-0.56898 -0.09612,-1.13388 -0.29379,-1.66743c-0.00033,-0.00098 -0.00065,-0.00196 -0.00098,-0.00295c-0.19839,-0.52362 -0.50108,-1.00149 -0.88973,-1.40459c-0.00637,-0.00673 -0.01275,-0.01345 -0.01916,-0.02015c-0.22364,-0.23045 -0.46603,-0.44194 -0.72464,-0.63229c-0.24761,-0.18407 -0.52044,-0.36077 -0.81849,-0.5301c-0.00965,-0.00559 -0.01932,-0.01116 -0.02899,-0.0167c-0.63867,-0.36028 -1.38379,-0.67962 -2.23536,-0.95801c-0.43819,-0.14218 -0.88166,-0.26754 -1.32942,-0.37583c-0.44151,-0.10743 -0.9097,-0.20666 -1.40459,-0.29772c-0.07119,-0.0132 -0.14242,-0.02613 -0.21371,-0.03881c-1.76863,-0.36028 -3.30801,-0.83518 -4.6181,-1.42474c-0.69959,-0.31115 -1.36798,-0.68819 -1.99611,-1.12603c-0.46227,-0.32361 -0.89573,-0.68655 -1.29553,-1.08476c-0.88432,-0.88432 -1.53937,-1.89146 -1.96515,-3.02142c-0.27327,-0.7359 -0.4575,-1.50186 -0.54877,-2.28154c-0.06094,-0.50635 -0.09097,-1.01594 -0.0899,-1.52594c0,-1.3756 0.30297,-2.65296 0.90889,-3.83205c0.60592,-1.17909 1.44112,-2.20261 2.50557,-3.07055c0.85927,-0.69441 1.81608,-1.25856 2.83965,-1.67431c0.30199,-0.1245 0.60843,-0.23789 0.91871,-0.33997c1.16205,-0.3778 2.36761,-0.60565 3.58739,-0.67798c0.35949,-0.02299 0.71963,-0.03445 1.07984,-0.0344c0.9779,-0.00354 1.95443,0.07336 2.91973,0.22992c0.65773,0.10793 1.30727,0.26092 1.94404,0.45787c1.29061,0.39334 2.50714,0.99778 3.60015,1.78878c0.11153,0.08138 0.2216,0.16476 0.33014,0.25007c1.14634,0.9007 2.09616,2.0061 2.84947,3.3162l-3.73379,3.68466c-0.36017,-0.5988 -0.7676,-1.16789 -1.21839,-1.70182c-0.30761,-0.36333 -0.63915,-0.7057 -0.9924,-1.02483c-0.81882,-0.73693 -1.7195,-1.29373 -2.70209,-1.67038c-0.97142,-0.36858 -2.00111,-0.55977 -3.0401,-0.56449c-0.03472,-0.00035 -0.06943,-0.00051 -0.10415,-0.00049c-0.52956,-0.00206 -1.05854,0.03571 -1.58243,0.11299c-0.59806,0.09073 -1.1506,0.23598 -1.65761,0.43577c-0.03368,0.01331 -0.06725,0.0269 -0.10072,0.04078c-0.43724,0.17786 -0.8521,0.4064 -1.23608,0.68093c-0.37825,0.27133 -0.71489,0.59638 -0.99928,0.96489c-0.5077,0.66265 -0.79065,1.47003 -0.80769,2.30464c-0.00204,0.05877 -0.00303,0.11757 -0.00295,0.17638c0,0.68781 0.13101,1.31829 0.39303,1.89146c0.21187,0.45782 0.50651,0.87256 0.86908,1.2233c0.10694,0.10489 0.21858,0.2049 0.33456,0.29969c0.23644,0.19138 0.4878,0.36355 0.75167,0.51487c0.41203,0.23877 0.89021,0.46017 1.43457,0.66423c0.42994,0.15987 0.86605,0.30263 1.30732,0.42791c0.60428,0.17326 1.26572,0.33358 1.98431,0.48097c1.80139,0.39303 3.40627,0.89251 4.81462,1.49843c1.40836,0.60592 2.60383,1.31829 3.58641,2.1371c0.5446,0.44903 1.03643,0.95849 1.466,1.51857c0.29417,0.3861 0.55174,0.79877 0.76936,1.23264c0.50767,1.01533 0.7615,2.11254 0.7615,3.29163c0,2.19442 -0.50767,4.09407 -1.52299,5.69895c-1.01533,1.60487 -2.45645,2.84128 -4.32334,3.70923c-1.80532,0.83944 -3.94767,1.27293 -6.42704,1.30044c-0.08482,0.00096 -0.16966,0.00146 -0.25449,0.00148c-1.11881,0.00417 -2.23575,-0.09218 -3.33732,-0.2879c-0.62372,-0.11243 -1.2401,-0.26238 -1.84577,-0.44903c-1.58849,-0.49129 -3.02961,-1.2364 -4.32334,-2.23536c-1.05865,-0.82363 -2.00881,-1.77792 -2.82786,-2.84013c-0.22028,-0.28348 -0.43227,-0.5733 -0.63573,-0.86908zM471.78143,169.99837l3.63553,-4.17595c1.56819,2.24027 3.07383,3.80831 4.5169,4.70409c0.03358,0.02073 0.06731,0.0412 0.1012,0.06141c1.47386,0.88432 3.22612,1.32647 5.25678,1.32647c0.66838,0.00314 1.33547,-0.05922 1.99168,-0.1862c0.47688,-0.09364 0.94472,-0.22858 1.39821,-0.40335c0.43611,-0.16607 0.85449,-0.37542 1.24886,-0.62492c0.43296,-0.27346 0.8233,-0.60917 1.15846,-0.99634c0.58954,-0.68781 0.88432,-1.47386 0.88432,-2.35818c0.00341,-0.56898 -0.09612,-1.13388 -0.29379,-1.66743c-0.00033,-0.00098 -0.00065,-0.00196 -0.00098,-0.00295c-0.19839,-0.52362 -0.50108,-1.00149 -0.88973,-1.40459c-0.00637,-0.00673 -0.01275,-0.01345 -0.01916,-0.02015c-0.22364,-0.23045 -0.46603,-0.44194 -0.72464,-0.63229c-0.24761,-0.18407 -0.52044,-0.36077 -0.81849,-0.5301c-0.00965,-0.00559 -0.01932,-0.01116 -0.02899,-0.0167c-0.63867,-0.36028 -1.38379,-0.67962 -2.23536,-0.95801c-0.43819,-0.14218 -0.88166,-0.26754 -1.32942,-0.37583c-0.44151,-0.10743 -0.9097,-0.20666 -1.40459,-0.29772c-0.07119,-0.0132 -0.14242,-0.02613 -0.21371,-0.03881c-1.76863,-0.36028 -3.30801,-0.83518 -4.6181,-1.42474c-0.69959,-0.31115 -1.36798,-0.68819 -1.99611,-1.12603c-0.46227,-0.32361 -0.89573,-0.68655 -1.29553,-1.08476c-0.88432,-0.88432 -1.53937,-1.89146 -1.96515,-3.02142c-0.27327,-0.7359 -0.4575,-1.50186 -0.54877,-2.28154c-0.06094,-0.50635 -0.09097,-1.01594 -0.0899,-1.52594c0,-1.3756 0.30297,-2.65296 0.90889,-3.83205c0.60592,-1.17909 1.44112,-2.20261 2.50557,-3.07055c0.85927,-0.69441 1.81608,-1.25856 2.83965,-1.67431c0.30199,-0.1245 0.60843,-0.23789 0.91871,-0.33997c1.16205,-0.3778 2.36761,-0.60565 3.58739,-0.67798c0.35949,-0.02299 0.71963,-0.03445 1.07984,-0.0344c0.9779,-0.00354 1.95443,0.07336 2.91973,0.22992c0.65773,0.10793 1.30727,0.26092 1.94404,0.45787c1.29061,0.39334 2.50714,0.99778 3.60015,1.78878c0.11153,0.08138 0.2216,0.16476 0.33014,0.25007c1.14634,0.9007 2.09616,2.0061 2.84947,3.3162l-3.73379,3.68466c-0.36017,-0.5988 -0.7676,-1.16789 -1.21839,-1.70182c-0.30761,-0.36333 -0.63915,-0.7057 -0.9924,-1.02483c-0.81882,-0.73693 -1.7195,-1.29373 -2.70209,-1.67038c-0.97142,-0.36858 -2.00111,-0.55977 -3.0401,-0.56449c-0.03472,-0.00035 -0.06943,-0.00051 -0.10415,-0.00049c-0.52956,-0.00206 -1.05854,0.03571 -1.58243,0.11299c-0.59806,0.09073 -1.1506,0.23598 -1.65761,0.43577c-0.03368,0.01331 -0.06725,0.0269 -0.10072,0.04078c-0.43724,0.17786 -0.8521,0.4064 -1.23608,0.68093c-0.37825,0.27133 -0.71489,0.59638 -0.99928,0.96489c-0.5077,0.66265 -0.79065,1.47003 -0.80769,2.30464c-0.00204,0.05877 -0.00303,0.11757 -0.00295,0.17638c0,0.68781 0.13101,1.31829 0.39303,1.89146c0.21187,0.45782 0.50651,0.87256 0.86908,1.2233c0.10694,0.10489 0.21858,0.2049 0.33456,0.29969c0.23644,0.19138 0.4878,0.36355 0.75167,0.51487c0.41203,0.23877 0.89021,0.46017 1.43457,0.66423c0.42994,0.15987 0.86605,0.30263 1.30732,0.42791c0.60428,0.17326 1.26572,0.33358 1.98431,0.48097c1.80139,0.39303 3.40627,0.89251 4.81462,1.49843c1.40836,0.60592 2.60383,1.31829 3.58641,2.1371c0.5446,0.44903 1.03643,0.95849 1.466,1.51857c0.29417,0.3861 0.55174,0.79877 0.76936,1.23264c0.50767,1.01533 0.7615,2.11254 0.7615,3.29163c0,2.19442 -0.50767,4.09407 -1.52299,5.69895c-1.01533,1.60487 -2.45645,2.84128 -4.32334,3.70923c-1.80532,0.83944 -3.94767,1.27293 -6.42704,1.30044c-0.08482,0.00096 -0.16966,0.00146 -0.25449,0.00148c-1.11881,0.00417 -2.23575,-0.09218 -3.33732,-0.2879c-0.62372,-0.11243 -1.2401,-0.26238 -1.84577,-0.44903c-1.58849,-0.49129 -3.02961,-1.2364 -4.32334,-2.23536c-1.05865,-0.82363 -2.00881,-1.77792 -2.82786,-2.84013c-0.22028,-0.28348 -0.43227,-0.5733 -0.63573,-0.86908zM441.56721,176.18861h-5.40417l13.31391,-34.39018h5.40417l13.21566,34.39018h-5.64982l-7.86062,-20.73237c-0.09531,-0.22238 -0.27529,-0.75266 -0.53993,-1.59079c-0.00837,-0.02653 -0.01672,-0.05306 -0.02506,-0.07959c-0.27839,-0.88432 -0.59773,-1.8669 -0.95801,-2.94774c-0.36028,-1.08083 -0.68781,-2.0716 -0.98257,-2.97229c-0.24073,-0.73562 -0.41596,-1.25818 -0.52568,-1.56771c-0.02076,-0.05898 -0.04205,-0.11777 -0.06386,-0.17638l1.12996,-0.04913c-0.19651,0.5568 -0.43397,1.26098 -0.71237,2.11254c-0.27839,0.85157 -0.57317,1.75226 -0.88432,2.70209c-0.31115,0.94982 -0.61411,1.84233 -0.90889,2.67752l-0.73693,2.08797zM431.74144,176.18861h-21.42017v-34.39018h5.30591v29.28079h16.11425zM384.47951,176.18861h-5.30591v-34.39018h14.00172c1.8669,0 3.56184,0.46672 5.08484,1.40017c1.52299,0.93345 2.74303,2.20261 3.66009,3.80749c0.8797,1.55001 1.35197,3.2978 1.37266,5.07993c0.002,0.09169 0.00298,0.18341 0.00295,0.27513c0.01086,1.35124 -0.22988,2.6927 -0.70991,3.95586c-0.18636,0.48249 -0.4089,0.95021 -0.6657,1.39919c-0.91708,1.60487 -2.1371,2.89041 -3.66009,3.85661c-1.52299,0.9662 -3.21793,1.4493 -5.08484,1.4493h-8.6958zM384.47951,146.90782v11.00486h8.59754c0.88432,0 1.68676,-0.25383 2.40732,-0.7615c0.66189,-0.46988 1.21333,-1.07848 1.61585,-1.78338c0.04429,-0.0761 0.08704,-0.15309 0.12822,-0.23091c0.4043,-0.77054 0.62903,-1.62259 0.65735,-2.4923c0.00393,-0.09444 0.00589,-0.18896 0.00589,-0.28347c0.00408,-0.60213 -0.0822,-1.20145 -0.25596,-1.77797c-0.10339,-0.33703 -0.23981,-0.66302 -0.40728,-0.97324c-0.30717,-0.57878 -0.71301,-1.09949 -1.19923,-1.53872c-0.17207,-0.15394 -0.35408,-0.29639 -0.54484,-0.42644c-0.72056,-0.49129 -1.52299,-0.73693 -2.40732,-0.73693zM532.55379,176.18861h-5.30591v-34.39018h5.30591zM510.10192,176.18861h-5.30591v-34.39018h5.30591zM529.60607,161.59734h-22.501v-5.10939h22.501zM461.90654,167.64019h-19.84805l1.96515,-5.10939h15.62297z"/><path d="M323.4525,217.24585h-5.12156l14.17575,-32.00975h5.44165l14.13001,32.00975h-5.3502l-9.2371,-20.85206c-0.07248,-0.13536 -0.1414,-0.27259 -0.20669,-0.41156c-0.1567,-0.33138 -0.32406,-0.72769 -0.50209,-1.18893c-0.25912,-0.67068 -0.53349,-1.37947 -0.82311,-2.12636c-0.28962,-0.74689 -0.56398,-1.47854 -0.82311,-2.19495c-0.09206,-0.25459 -0.18382,-0.5093 -0.27529,-0.76412c-0.07225,-0.20059 -0.14069,-0.39158 -0.20532,-0.57298c-0.06107,-0.17154 -0.12189,-0.34317 -0.18246,-0.5149l1.28039,-0.04573c-0.24389,0.64019 -0.49539,1.31087 -0.75451,2.01204c-0.25912,0.70116 -0.52587,1.40995 -0.80024,2.12636c-0.27437,0.71641 -0.54874,1.40234 -0.82311,2.05777c-0.27437,0.65544 -0.53349,1.25752 -0.77738,1.80626zM232.682,217.24585h-23.73294v-32.00975h23.73294v4.75574h-18.7943v22.49827h18.7943zM427.43843,217.24585h-23.73294v-32.00975h23.73294v4.75574h-18.7943v22.49827h18.7943zM376.17711,217.24585h-14.5873v-32.00975h14.5873c2.65224,0 5.00724,0.40394 7.06501,1.2118c2.05777,0.80786 3.80306,1.94345 5.23588,3.40675c1.43282,1.4633 2.51505,3.16287 3.2467,5.09869c0.73165,1.93583 1.09748,4.0317 1.09748,6.28763c0,2.28641 -0.36582,4.40515 -1.09748,6.35623c-0.73165,1.95107 -1.80626,3.64301 -3.22383,5.07583c-1.16514,1.16696 -2.52273,2.12435 -4.01311,2.83012c-0.40058,0.19269 -0.80848,0.36979 -1.22277,0.53091c-1.28825,0.49434 -2.63061,0.83403 -3.99894,1.01197c-1.02398,0.13603 -2.05597,0.20279 -3.08894,0.19983zM366.52846,189.58029v23.41284l-0.13719,-0.50301h9.55719c0.82145,0.00304 1.64217,-0.0495 2.45652,-0.15731c0.867,-0.11829 1.67305,-0.30288 2.41811,-0.55377c0.10574,-0.03574 0.21093,-0.0731 0.31553,-0.11203c0.77172,-0.28144 1.50779,-0.65239 2.19312,-1.10525c0.53194,-0.35393 1.02328,-0.76536 1.46513,-1.22689c0.9603,-1.00602 1.6767,-2.19495 2.14923,-3.5668c0.33252,-0.97888 0.54728,-1.99387 0.63974,-3.02355c0.04666,-0.49982 0.0697,-1.00155 0.06905,-1.50355c0.00387,-0.9427 -0.08435,-1.88353 -0.26339,-2.80909c-0.10969,-0.55955 -0.25852,-1.11071 -0.44539,-1.64941c-0.47252,-1.3566 -1.19655,-2.54554 -2.17209,-3.5668c-0.97553,-1.02126 -2.19495,-1.81388 -3.65826,-2.37787c-1.4633,-0.56398 -3.18573,-0.84598 -5.16729,-0.84598h-9.69438zM454.28089,217.24585h-14.5873v-32.00975h14.5873c2.65224,0 5.00724,0.40394 7.06501,1.2118c2.05777,0.80786 3.80306,1.94345 5.23588,3.40675c1.43282,1.4633 2.51505,3.16287 3.2467,5.09869c0.73165,1.93583 1.09748,4.0317 1.09748,6.28763c0,2.28641 -0.36582,4.40515 -1.09748,6.35623c-0.73165,1.95107 -1.80626,3.64301 -3.22383,5.07583c-1.16514,1.16696 -2.52273,2.12435 -4.01311,2.83012c-0.40058,0.19269 -0.80848,0.36979 -1.22277,0.53091c-1.28825,0.49434 -2.63061,0.83403 -3.99894,1.01197c-1.02398,0.13603 -2.05597,0.20279 -3.08894,0.19983zM444.63224,189.58029v23.41284l-0.13719,-0.50301h9.55719c0.82145,0.00304 1.64217,-0.0495 2.45652,-0.15731c0.867,-0.11829 1.67305,-0.30288 2.41811,-0.55377c0.10574,-0.03574 0.21093,-0.0731 0.31553,-0.11203c0.77172,-0.28144 1.50779,-0.65239 2.19312,-1.10525c0.53194,-0.35393 1.02328,-0.76536 1.46513,-1.22689c0.9603,-1.00602 1.6767,-2.19495 2.14923,-3.5668c0.33252,-0.97888 0.54728,-1.99387 0.63974,-3.02355c0.04666,-0.49982 0.0697,-1.00155 0.06905,-1.50355c0.00387,-0.9427 -0.08435,-1.88353 -0.26339,-2.80909c-0.10969,-0.55955 -0.25852,-1.11071 -0.44539,-1.64941c-0.47252,-1.3566 -1.19655,-2.54554 -2.17209,-3.5668c-0.97553,-1.02126 -2.19495,-1.81388 -3.65826,-2.37787c-1.4633,-0.56398 -3.18573,-0.84598 -5.16729,-0.84598h-9.69438zM268.44146,217.24585h-23.5043v-32.00975h4.93864v27.25401h18.56565zM174.01272,217.24585h-4.93864v-32.00975h16.46215c1.85961,0 3.5668,0.44204 5.12156,1.32612c1.55476,0.88408 2.80466,2.08063 3.74971,3.58967c0.94505,1.50903 1.41757,3.2086 1.41757,5.09869c0.01048,1.79356 -0.50632,3.55067 -1.48617,5.05296c-0.99078,1.53952 -2.30165,2.76656 -3.93263,3.68112c-1.63097,0.91456 -3.422,1.37185 -5.37306,1.37185h-11.0205zM174.01272,189.99184v10.60894h10.97477c0.79188,0.00696 1.5765,-0.15128 2.30379,-0.4646c0.18179,-0.07941 0.35917,-0.16856 0.53136,-0.26705c0.85359,-0.48777 1.53952,-1.1432 2.05777,-1.96631c0.51826,-0.82311 0.77738,-1.72243 0.77738,-2.69796c0,-1.00602 -0.28199,-1.89772 -0.84598,-2.6751c-0.48828,-0.66682 -1.11388,-1.22116 -1.83462,-1.62563c-0.1403,-0.08041 -0.28337,-0.15591 -0.42893,-0.22635c-0.78103,-0.37333 -1.62511,-0.59699 -2.48853,-0.6594c-0.22179,-0.01771 -0.44422,-0.02656 -0.66672,-0.02653zM289.80888,217.21201c-0.85266,-0.19312 -1.68981,-0.44929 -2.50453,-0.76641c-2.01644,-0.7717 -3.87235,-1.91053 -5.47367,-3.35873c-0.05059,-0.04618 -0.10088,-0.09268 -0.1509,-0.13947c-1.60049,-1.49379 -2.83515,-3.23908 -3.70399,-5.23588c-0.82251,-1.90868 -1.26354,-3.95988 -1.29822,-6.03795c-0.00338,-0.14417 -0.00506,-0.28838 -0.00503,-0.43259c-0.01144,-1.81214 0.27926,-3.61352 0.86015,-5.33008c0.13246,-0.3859 0.28028,-0.76635 0.4431,-1.14046c0.86883,-1.9968 2.1035,-3.74209 3.70399,-5.23588c1.60049,-1.49379 3.47534,-2.65986 5.62457,-3.4982c1.69838,-0.65366 3.48366,-1.05394 5.29853,-1.18802c0.58767,-0.04659 1.17696,-0.06977 1.76648,-0.0695c1.47183,-0.0067 2.94039,0.13919 4.38213,0.43534c0.9293,0.19364 1.84171,0.46092 2.7286,0.79933c2.14923,0.82311 4.02408,1.98918 5.62457,3.4982c1.60049,1.50903 2.83515,3.26195 3.70399,5.25874c0.82257,1.90882 1.26361,3.96018 1.29822,6.03841c0.00338,0.14402 0.00505,0.28808 0.00503,0.43213c0.01148,1.81229 -0.27922,3.61383 -0.86015,5.33054c-0.13247,0.38575 -0.2803,0.76605 -0.4431,1.14c-0.86883,1.9968 -2.1035,3.74971 -3.70399,5.25874c-1.60049,1.50903 -3.47534,2.6751 -5.62457,3.4982c-1.59925,0.60423 -3.27364,0.98687 -4.9766,1.13726c-0.70947,0.06575 -1.42162,0.09825 -2.13413,0.0974c-1.53374,0.00731 -3.06346,-0.15743 -4.56048,-0.49112zM294.41508,212.90167c1.05587,0.00497 2.10936,-0.10032 3.14336,-0.31415c0.66618,-0.13991 1.32005,-0.33305 1.95534,-0.57754c1.16087,-0.44079 2.24993,-1.05136 3.23161,-1.81175c0.26597,-0.2079 0.52275,-0.4273 0.7696,-0.65757c1.12796,-1.05175 2.00442,-2.28641 2.62937,-3.70399c0.62495,-1.41757 0.93743,-2.94946 0.93743,-4.59569c0.00818,-1.28776 -0.20099,-2.56768 -0.6187,-3.78584c-0.09531,-0.27413 -0.20164,-0.5443 -0.31873,-0.80984c-0.62495,-1.41757 -1.50141,-2.65224 -2.62937,-3.70399c-1.01365,-0.93762 -2.18104,-1.69387 -3.45111,-2.23565c-0.18925,-0.08211 -0.38029,-0.16002 -0.57298,-0.23367c-1.27608,-0.48166 -2.61704,-0.76974 -3.97836,-0.85466c-0.3653,-0.02478 -0.73134,-0.03713 -1.09748,-0.03704c-1.09878,-0.00513 -2.19487,0.10879 -3.26911,0.33976c-0.63036,0.13761 -1.24957,0.3221 -1.85245,0.55194c-1.12104,0.42183 -2.17885,0.9956 -3.14382,1.7052c-0.313,0.23215 -0.61441,0.47954 -0.90314,0.74125c-1.1432,1.0365 -2.01966,2.26355 -2.62937,3.68112c-0.5214,1.22613 -0.82338,2.53433 -0.89216,3.86494c-0.01499,0.25855 -0.02246,0.51748 -0.02241,0.77646c-0.0095,1.42627 0.24058,2.84236 0.73805,4.1791c0.05575,0.14771 0.1146,0.29422 0.17651,0.43944c0.60971,1.43282 1.48617,2.66748 2.62937,3.70399c1.02769,0.92449 2.20141,1.67235 3.47352,2.21324c0.18946,0.08182 0.38065,0.15957 0.57344,0.23321c1.55476,0.59446 3.26195,0.8917 5.12156,0.8917zM197.42556,217.29158l-6.08186,-0.04573l-9.69438,-14.45012l5.16729,-1.1432zM344.85329,209.56351h-20.30332l1.87486,-4.75574h17.05662zM230.16695,203.20729h-18.70283v-4.75574h18.70283zM424.92338,203.20729h-18.70283v-4.75574h18.70283z"/></g><text transform="translate(279.64843,242.57271) scale(0.5,0.5)" font-size="40" xml:space="preserve" fill="#808080" fill-rule="nonzero" stroke="none" stroke-width="1" stroke-linecap="butt" stroke-linejoin="miter" stroke-miterlimit="10" stroke-dasharray="" stroke-dashoffset="0" font-family="&quot;ヒラギノ角ゴ Pro W3&quot;, &quot;Hiragino Kaku Gothic Pro&quot;, Osaka, &quot;メイリオ&quot;, Meiryo, &quot;ＭＳ Ｐゴシック&quot;, &quot;MS PGothic&quot;" font-weight="normal" text-anchor="start" style="mix-blend-mode: normal"><tspan x="0" dy="0">prototype</tspan></text></g></g></svg>